<svg width="70" height="70" viewBox="0 0 70 70" fill="none" xmlns="http://www.w3.org/2000/svg">
<path d="M61.8523 43.6057C58.9531 41.0828 56.4302 38.0465 53.1052 36.0428C49.7744 34.039 46.1956 35.2757 43.8856 38.2653C41.6544 41.1557 40.2602 45.0436 36.8915 46.8665C32.741 49.1153 30.3027 45.4899 26.8406 44.0374C22.976 42.4186 20.0419 45.3295 17.7844 48.1265C15.524 50.9265 13.2344 53.6974 10.936 56.4682M47.5511 8.02173H22.3248C8.02149 8.02173 8.02149 8.02173 8.02149 16.8301V46.8221C8.02149 61.8546 7.9541 62.0454 22.3248 61.8546H53.0323C61.8523 61.8546 61.8523 61.8546 61.8523 46.8665L61.8544 16.8301C61.8544 8.02173 61.8544 8.02173 47.5511 8.02173ZM31.2173 25.6244C31.2173 28.5965 28.8052 31.0086 25.8332 31.0086C22.864 31.0086 20.4519 28.5965 20.4519 25.6244C20.4519 22.6523 22.864 20.2402 25.8332 20.2402C28.8052 20.2402 31.2173 22.6523 31.2173 25.6244Z" stroke="#01384D" stroke-width="4" stroke-linecap="round" stroke-linejoin="round"/>
</svg>
