<svg width="20" height="20" viewBox="0 0 20 20" fill="none" xmlns="http://www.w3.org/2000/svg">
<path d="M17.4917 14.9917L13.3751 10.875L11.6084 12.6417L15.7251 16.7583C16.2167 17.25 17.0084 17.25 17.4917 16.7583C17.9751 16.2667 17.9751 15.475 17.4917 14.9917Z" fill="white"/>
<path d="M14.7084 8.33325C16.3167 8.33325 17.625 7.02492 17.625 5.41658C17.625 4.93325 17.4917 4.48325 17.2834 4.08325L15.0334 6.33325L13.7917 5.09159L16.0417 2.84159C15.6417 2.63325 15.1917 2.49992 14.7084 2.49992C13.1 2.49992 11.7917 3.80825 11.7917 5.41658C11.7917 5.75825 11.8584 6.08325 11.9667 6.38325L10.425 7.92492L8.9417 6.44158C9.2667 6.11658 9.2667 5.59159 8.9417 5.26659L8.35003 4.67492L10.1167 2.90825C9.1417 1.93325 7.55837 1.93325 6.58337 2.90825L4.23337 5.26659C3.90837 5.59159 3.90837 6.11658 4.23337 6.44158L4.82503 7.03325H2.70837C2.55003 7.03325 2.40003 7.09158 2.2917 7.20825C2.05837 7.44158 2.05837 7.80825 2.2917 8.04158L4.40837 10.1583C4.6417 10.3916 5.00837 10.3916 5.2417 10.1583C5.35003 10.0499 5.4167 9.89992 5.4167 9.74158V7.62492L6.00003 8.20825C6.32503 8.53325 6.85003 8.53325 7.17503 8.20825L8.65837 9.69158L3.3667 14.9833C2.87503 15.4749 2.87503 16.2666 3.3667 16.7499C3.85837 17.2416 4.65003 17.2416 5.13337 16.7499L13.7334 8.15825C14.0417 8.26658 14.3667 8.33325 14.7084 8.33325Z" fill="white"/>
</svg>
