<svg width="9" height="9" viewBox="0 0 9 9" fill="none" xmlns="http://www.w3.org/2000/svg">
<path d="M8.4377 0.568701C8.19395 0.324951 7.8002 0.324951 7.55645 0.568701L4.5002 3.6187L1.44395 0.562451C1.2002 0.318701 0.806445 0.318701 0.562695 0.562451C0.318945 0.806201 0.318945 1.19995 0.562695 1.4437L3.61895 4.49995L0.562695 7.5562C0.318945 7.79995 0.318945 8.1937 0.562695 8.43745C0.806445 8.6812 1.2002 8.6812 1.44395 8.43745L4.5002 5.3812L7.55645 8.43745C7.8002 8.6812 8.19395 8.6812 8.4377 8.43745C8.68145 8.1937 8.68145 7.79995 8.4377 7.5562L5.38145 4.49995L8.4377 1.4437C8.6752 1.2062 8.6752 0.806201 8.4377 0.568701Z" fill="black"/>
</svg>
